<?xml version="1.0" encoding="utf-8"?>
<!-- Generator: Adobe Illustrator 24.1.0, SVG Export Plug-In . SVG Version: 6.00 Build 0)  -->
<svg version="1.1" id="primary_logo_small" xmlns="http://www.w3.org/2000/svg" xmlns:xlink="http://www.w3.org/1999/xlink" x="0px"
	 y="0px" viewBox="0 0 2000 40" style="enable-background:new 0 0 432 288;" xml:space="preserve">
<style type="text/css">
	.st0{fill:#01A982;}
	.st1{fill:#FFFFFF;}
</style>
<g>
	<path id="element" class="st0" d="M126.6,109.3v15.9l0,0h55.2v-15.9H126.6z M178.4,121.7h-48.3v-9h48.3V121.7z"/>
	<path class="st1" d="M136.7,158.2v1.9h-7.8v4.8h7.1v1.9h-7.1v5.3h7.8v1.9h-10.1v-15.9L136.7,158.2L136.7,158.2z M142.1,174H140
		v-11.7h2v2.2c0.8-1.5,2.2-2.4,3.9-2.4c2.7,0,4.3,1.8,4.3,4.4v7.5h-2.2v-7.4c0-1.5-0.8-2.5-2.6-2.5c-1.5,0-2.9,1-3.3,2.4V174z
		 M159.1,174.3c-2.9,0-4.1-1.3-4.1-3.6v-6.4h-2.5v-1.9h2.5v-3h2.2v3h3.3v1.9h-3.3v6.2c0,1.4,0.8,1.8,2.1,1.8c0.4,0,0.7,0,1-0.2h0.2
		v1.9C160.1,174.2,159.7,174.3,159.1,174.3z M168.5,174.3c-3.9,0-6.3-2.3-6.3-6c0-3.7,2.3-6.2,5.6-6.2c3.5,0,5.2,2.3,5.2,5.7v1.1
		h-8.6c0.3,2.3,1.9,3.4,4.1,3.4c1.4,0,2.4-0.2,3.4-1h0.2v1.9C171.2,174,169.8,174.3,168.5,174.3z M164.5,167.3h6.5
		c-0.1-2.1-1.2-3.3-3.1-3.3S164.7,165.4,164.5,167.3z M182.5,164.6c-0.3-0.1-0.8-0.3-1.2-0.3c-1.4,0-2.5,1-2.9,2.5v7.2h-2.2v-11.7h2
		v2.5c0.7-1.9,1.9-2.7,3.3-2.7c0.5,0,1,0.1,1.1,0.2v2.2L182.5,164.6L182.5,164.6z M187,172.1v6.2h-2.2v-16h2v2
		c0.7-1.2,2-2.3,3.8-2.3c3.5,0,5.4,2.8,5.4,6c0,3.2-1.9,6.1-5.4,6.1C189,174.2,187.7,173.2,187,172.1z M193.8,168.1
		c0-2.4-1.3-3.9-3.7-3.9c-1.4,0-2.5,0.7-3.2,2v4c0.7,1.2,1.8,2,3.2,2C192.5,172.2,193.8,170.5,193.8,168.1z M205.6,164.6
		c-0.3-0.1-0.8-0.3-1.2-0.3c-1.4,0-2.5,1-2.9,2.5v7.2h-2.2v-11.7h2v2.5c0.7-1.9,1.9-2.7,3.3-2.7c0.5,0,1,0.1,1.1,0.2v2.2
		L205.6,164.6L205.6,164.6z M209.3,161.2c-0.8,0-1.5-0.7-1.5-1.5c0-0.8,0.7-1.5,1.5-1.5c0.8,0,1.5,0.7,1.5,1.5
		C210.8,160.5,210.1,161.2,209.3,161.2z M210.4,174h-2.2v-11.7h2.2V174z M213.9,171.3h0.2c1,0.8,2.4,1.2,3.7,1.2
		c1.3,0,2.4-0.5,2.4-1.5c0-1-0.9-1.3-2.8-1.9c-1.6-0.6-3.5-1.1-3.5-3.4c0-2.3,1.9-3.6,4.3-3.6c1.4,0,2.6,0.3,3.6,1v2h-0.2
		c-0.9-0.7-2-1.1-3.4-1.1c-1.4,0-2.1,0.6-2.1,1.5c0,1,0.8,1.2,2.7,1.8c1.7,0.6,3.6,1.2,3.6,3.4c0,2.4-2,3.7-4.5,3.7
		c-1.5,0-3.1-0.4-4-1.1L213.9,171.3L213.9,171.3z M231.1,174.3c-3.9,0-6.3-2.3-6.3-6c0-3.7,2.3-6.2,5.6-6.2c3.5,0,5.2,2.3,5.2,5.7
		v1.1H227c0.3,2.3,1.9,3.4,4.1,3.4c1.4,0,2.4-0.2,3.4-1h0.2v1.9C233.8,174,232.4,174.3,231.1,174.3z M227.1,167.3h6.5
		c-0.1-2.1-1.2-3.3-3.1-3.3C228.6,164,227.3,165.4,227.1,167.3z M139.9,135.5v15.9h-3.5v-6.6h-6.4v6.6h-3.5v-15.9h3.5v6.3h6.4v-6.3
		H139.9z M149.3,151.7c-4.4,0-6.7-2.4-6.7-6.2s2.4-6.3,6-6.3c3.8,0,5.7,2.4,5.7,6v1.3h-8.1c0.3,2,1.8,2.5,3.3,2.5
		c1.4,0,2.4-0.2,3.6-0.8h0.4v2.5C152.4,151.4,150.8,151.7,149.3,151.7z M146.1,144.3h4.7c-0.1-1.8-0.9-2.6-2.3-2.6
		C147.4,141.8,146.4,142.3,146.1,144.3z M158.3,151.4l-2.5-11.5v-0.4h3.2l1.3,7.3l0.3,2.3l0.5-2.3l1.6-7.3h3.6l1.6,7.3l0.5,2.3
		l0.4-2.3l1.3-7.3h3v0.4l-2.5,11.5h-4.4l-1.4-6.4l-0.4-2.4l-0.4,2.4l-1.4,6.4H158.3z M179.4,151.7c-2.5,0-3.8-1.2-3.8-3.9v-12.3h3.5
		v12c0,0.8,0.4,1.1,1.2,1.1c0.3,0,0.7-0.1,0.9-0.2h0.1v2.9C180.8,151.5,180,151.7,179.4,151.7z M188.9,151.7c-4.4,0-6.7-2.4-6.7-6.2
		s2.4-6.3,6-6.3c3.8,0,5.7,2.4,5.7,6v1.3h-8.1c0.3,2,1.8,2.5,3.3,2.5c1.4,0,2.4-0.2,3.6-0.8h0.4v2.5
		C192,151.4,190.3,151.7,188.9,151.7z M185.7,144.3h4.7c-0.1-1.8-0.9-2.6-2.3-2.6C187,141.8,185.9,142.3,185.7,144.3z M205.5,147.1
		v-4.7h-5.1v4.6c0,1.2,0.4,1.8,1.5,1.8c0.3,0,0.8-0.1,1-0.2h0.3v2.8c-0.5,0.2-1.1,0.4-2.2,0.4c-2.9,0-4.2-1.4-4.2-4.6v-4.7H195v-2.8
		h2.1v-2.9h3.5v2.9h5.1v-2.9h3.5v2.9h2.9v2.8H209v4.6c0,1.2,0.4,1.8,1.5,1.8c0.3,0,0.8-0.1,1-0.2h0.3v2.8c-0.5,0.2-1.1,0.4-2.2,0.4
		C206.8,151.7,205.5,150.3,205.5,147.1z M222,146.5v4.9h-3.4v-15.9h6.2c3.5,0,5.8,1.9,5.8,5.5c0,3.5-2.3,5.5-5.8,5.5L222,146.5
		L222,146.5z M224.5,138.5H222v5.1h2.5c1.7,0,2.6-1,2.6-2.5C227.1,139.5,226.2,138.5,224.5,138.5z M239.3,149.6
		c-0.7,1.3-2,1.9-3.6,1.9c-2.2,0-4-1.3-4-3.6c0-2.4,1.6-3.7,4.6-3.7c1,0,2,0.1,2.9,0.3v-0.7c0-1.3-0.9-1.8-2.7-1.8
		c-1.3,0-2.4,0.3-3.3,0.7h-0.4v-2.6c0.9-0.5,2.5-0.9,4.1-0.9c3.7,0,5.7,1.7,5.7,4.6v7.6h-3.3L239.3,149.6L239.3,149.6z M239.2,147.7
		v-1.5c-0.6-0.2-1.3-0.2-2-0.2c-1.4,0-2.1,0.5-2.1,1.6c0,1.1,0.7,1.5,1.8,1.5C238,149.1,238.9,148.6,239.2,147.7z M245.2,145.5
		c0-3.9,2.7-6.3,6.2-6.3c1.4,0,2.6,0.3,3.3,0.8v3h-0.4c-0.7-0.6-1.5-0.8-2.6-0.8c-1.7,0-3.1,1.2-3.1,3.2c0,2,1.4,3.2,3.1,3.2
		c1,0,1.9-0.3,2.6-0.8h0.4v3c-0.8,0.5-1.9,0.8-3.3,0.8C247.9,151.7,245.2,149.3,245.2,145.5z M260.9,145.6v5.8h-3.5v-15.9h3.5v9
		l0.8-1.2l3.2-3.9h3.7v0.4l-4.4,5l4.4,6.1v0.4h-3.9l-2.9-4.4L260.9,145.6z M277,149.6c-0.7,1.3-2,1.9-3.6,1.9c-2.2,0-4-1.3-4-3.6
		c0-2.4,1.6-3.7,4.6-3.7c1,0,2,0.1,2.9,0.3v-0.7c0-1.3-0.9-1.8-2.7-1.8c-1.3,0-2.4,0.3-3.3,0.7h-0.4v-2.6c0.9-0.5,2.5-0.9,4.1-0.9
		c3.7,0,5.7,1.7,5.7,4.6v7.6H277L277,149.6L277,149.6z M276.9,147.7v-1.5c-0.6-0.2-1.3-0.2-2-0.2c-1.4,0-2.1,0.5-2.1,1.6
		c0,1.1,0.7,1.5,1.8,1.5S276.5,148.6,276.9,147.7z M286.7,141.9c0.6-1.8,2-2.5,3.4-2.5c0.5,0,0.8,0.1,1,0.2v3.3h-0.4
		c-0.4-0.2-0.7-0.3-1.2-0.3c-1.4,0-2.4,0.6-2.6,2v6.9h-3.5v-11.9h3.3L286.7,141.9L286.7,141.9z M301,149.7c-0.8,1.2-2,2-3.6,2
		c-3.2,0-5.3-2.6-5.3-6.2c0-3.6,2-6.3,5.3-6.3c1.4,0,2.6,0.6,3.4,1.7v-5.4h3.5v15.9H301L301,149.7L301,149.7z M300.9,147.5v-4.2
		c-0.6-0.9-1.5-1.3-2.5-1.3c-1.6,0-2.6,1.2-2.6,3.5c0,2.2,1.1,3.4,2.6,3.4C299.4,148.9,300.2,148.4,300.9,147.5z"/>
</g>
</svg>
