<svg width="48" height="48" viewBox="0 0 48 48" fill="none" xmlns="http://www.w3.org/2000/svg">
<path d="M24.0002 0.000244141C10.747 0.000244141 0 11.0172 0 24.6079C0 35.4801 6.87679 44.7041 16.4128 47.958C17.6123 48.1857 18.0526 47.4241 18.0526 46.7742C18.0526 46.1874 18.0304 44.249 18.02 42.1928C11.3431 43.6813 9.93424 39.2894 9.93424 39.2894C8.84249 36.4451 7.26945 35.6888 7.26945 35.6888C5.09192 34.1615 7.43359 34.1929 7.43359 34.1929C9.84363 34.3665 11.1126 36.7287 11.1126 36.7287C13.2532 40.4907 16.7272 39.4031 18.0967 38.7743C18.3121 37.1839 18.9341 36.0983 19.6205 35.4838C14.2897 34.8616 8.6859 32.7516 8.6859 23.3226C8.6859 20.636 9.62345 18.4409 11.1587 16.7176C10.9095 16.0978 10.088 13.595 11.3912 10.2055C11.3912 10.2055 13.4066 9.54411 17.993 12.7278C19.9074 12.1826 21.9606 11.9092 24.0002 11.8998C26.0398 11.9092 28.0946 12.1826 30.0126 12.7278C34.5934 9.54411 36.606 10.2055 36.606 10.2055C37.9123 13.595 37.0905 16.0978 36.8413 16.7176C38.3801 18.4409 39.3113 20.636 39.3113 23.3226C39.3113 32.774 33.6968 34.8551 28.3525 35.4643C29.2133 36.2279 29.9804 37.7254 29.9804 40.0212C29.9804 43.3138 29.9526 45.9637 29.9526 46.7742C29.9526 47.429 30.3846 48.1963 31.6011 47.9547C41.132 44.6972 48 35.4765 48 24.6079C48 11.0172 37.2546 0.000244141 24.0002 0.000244141Z" fill="#ffffff"/>
<path d="M9.16085 35.1625C9.10809 35.2836 8.92085 35.3199 8.75027 35.2368C8.57652 35.1573 8.47893 34.9923 8.53526 34.8708C8.58683 34.7462 8.77447 34.7115 8.94782 34.795C9.12197 34.8745 9.22115 35.0411 9.16085 35.1625Z" fill="#ffffff"/>
<path d="M10.1312 36.2632C10.0169 36.3709 9.79358 36.3209 9.64204 36.1506C9.48534 35.9808 9.45599 35.7536 9.57182 35.6443C9.68964 35.5366 9.90624 35.587 10.0633 35.7569C10.22 35.9287 10.2506 36.1543 10.1312 36.2632Z" fill="#ffffff"/>
<path d="M11.0757 37.6665C10.9289 37.7702 10.6889 37.6729 10.5406 37.4563C10.3938 37.2396 10.3938 36.9798 10.5437 36.8757C10.6925 36.7716 10.9289 36.8652 11.0793 37.0802C11.2256 37.3005 11.2256 37.5604 11.0757 37.6665Z" fill="#ffffff"/>
<path d="M12.3697 39.0222C12.2384 39.1694 11.9587 39.1299 11.754 38.929C11.5446 38.7325 11.4863 38.4537 11.618 38.3064C11.7509 38.1587 12.0321 38.2003 12.2384 38.3996C12.4463 38.5957 12.5097 38.8765 12.3697 39.0222Z" fill="#ffffff"/>
<path d="M14.1548 39.8093C14.0969 40.0002 13.8276 40.0869 13.5562 40.0058C13.2853 39.9223 13.108 39.6988 13.1627 39.5059C13.219 39.3139 13.4896 39.2235 13.7629 39.3102C14.0334 39.3934 14.2112 39.6153 14.1548 39.8093Z" fill="#ffffff"/>
<path d="M16.1153 39.9554C16.122 40.1563 15.892 40.323 15.6071 40.3266C15.3207 40.3331 15.089 40.1705 15.0859 39.9727C15.0859 39.7698 15.3108 39.6048 15.5972 39.5999C15.882 39.5943 16.1153 39.7557 16.1153 39.9554Z" fill="#ffffff"/>
<path d="M17.9397 39.6395C17.9738 39.8356 17.7759 40.0369 17.493 40.0906C17.2149 40.1422 16.9575 40.0212 16.9222 39.8267C16.8877 39.6258 17.0892 39.4244 17.3669 39.3724C17.6501 39.3223 17.9036 39.4402 17.9397 39.6395Z" fill="#ffffff"/>
</svg>
