<svg viewBox="0 0 171 37" fill="none" xmlns="http://www.w3.org/2000/svg"><path fill-rule="evenodd" clip-rule="evenodd" d="M77.013 31.282v-6.377c0-1.038.24-1.817.718-2.336.48-.52 1.116-.779 1.911-.779 1.444 0 2.166.9 2.166 2.702v6.79h4.625v-7.545c0-1.963-.5-3.431-1.497-4.405-.998-.974-2.317-1.46-3.955-1.46-.78 0-1.51.121-2.19.365-.682.243-1.275.6-1.778 1.07v-6.084H72.39v18.06h4.624Zm-47.485 0v-4.454h2.97c1.541 0 2.88-.255 4.016-.766 1.136-.511 2.012-1.238 2.628-2.179.617-.94.925-2.052.925-3.334s-.308-2.397-.925-3.347c-.616-.949-1.492-1.679-2.628-2.19-1.136-.511-2.475-.767-4.016-.767H24.71v17.037h4.819Zm2.678-8.251h-2.677v-4.99h2.677c.99 0 1.736.22 2.24.658.502.438.754 1.054.754 1.85 0 .795-.252 1.407-.755 1.837-.503.43-1.25.645-2.24.645Zm18.278 6.547c-.665 1.282-1.963 1.923-3.894 1.923-1.022 0-1.907-.178-2.653-.535-.746-.357-1.31-.84-1.691-1.449-.382-.608-.572-1.302-.572-2.08 0-1.25.478-2.22 1.436-2.909.957-.69 2.433-1.034 4.43-1.034h2.628c-.081-1.396-1.014-2.093-2.8-2.093-.632 0-1.273.1-1.922.304-.649.203-1.2.483-1.655.84l-1.558-3.14c.73-.487 1.619-.864 2.666-1.132a12.668 12.668 0 0 1 3.151-.402c2.19 0 3.862.5 5.014 1.497 1.152.998 1.728 2.527 1.728 4.588v7.326h-4.308v-1.704Zm-2.604-.998c-.536 0-.957-.121-1.266-.365a1.178 1.178 0 0 1-.462-.973c0-.893.673-1.339 2.02-1.339h1.996v1.144c-.179.503-.47.884-.876 1.144-.406.26-.877.39-1.412.39Zm20.444 1.96c-1.087.64-2.377.961-3.87.961-1.46 0-2.766-.292-3.918-.876-1.152-.584-2.048-1.395-2.69-2.434-.64-1.038-.96-2.215-.96-3.53 0-1.313.32-2.486.96-3.516.642-1.03 1.538-1.834 2.69-2.41 1.152-.576 2.458-.864 3.919-.864 1.492 0 2.782.32 3.87.962 1.087.64 1.857 1.53 2.312 2.665l-3.578 1.825c-.6-1.184-1.477-1.776-2.629-1.776-.827 0-1.513.275-2.056.827-.544.552-.816 1.314-.816 2.288 0 .99.272 1.765.816 2.324.543.56 1.229.84 2.056.84 1.152 0 2.028-.592 2.629-1.777l3.578 1.826c-.455 1.135-1.225 2.024-2.313 2.665Zm26.773 4.697c-.957.657-2.125.986-3.505.986-.697 0-1.399-.11-2.105-.329-.706-.219-1.278-.507-1.716-.864l1.607-3.237c.26.244.572.434.937.572a3.11 3.11 0 0 0 1.107.207c.438 0 .8-.09 1.083-.268.284-.178.523-.462.718-.852L87.576 18.09h4.747l3.237 8.057 3.261-8.056h4.405l-5.695 13.726c-.665 1.623-1.477 2.763-2.434 3.42Zm15.066-3.736c1.72 0 3.01-.51 3.87-1.533v1.314h4.405v-18.06h-4.624v6.013c-.86-.91-2.077-1.363-3.651-1.363-1.201 0-2.296.275-3.286.827-.99.552-1.773 1.343-2.349 2.373-.576 1.03-.864 2.227-.864 3.59s.288 2.564.864 3.602c.576 1.039 1.359 1.838 2.349 2.398.99.56 2.085.84 3.286.84Zm-1.022-4.515c.519.56 1.184.84 1.995.84.796 0 1.453-.28 1.972-.84.519-.56.779-1.335.779-2.324 0-.974-.256-1.736-.767-2.288-.511-.552-1.172-.828-1.984-.828-.811 0-1.476.276-1.995.828-.52.552-.779 1.314-.779 2.288 0 .99.259 1.764.779 2.324Zm19.179 4.515c2.466 0 4.34-.714 5.622-2.142l-2.434-2.531c-.471.406-.937.698-1.4.876-.462.179-1.01.268-1.642.268-.844 0-1.546-.183-2.106-.548-.56-.365-.937-.888-1.131-1.57h9.589c.049-.73.073-1.111.073-1.143 0-1.412-.312-2.633-.937-3.663a6.21 6.21 0 0 0-2.543-2.361c-1.071-.544-2.264-.816-3.578-.816-1.379 0-2.621.292-3.724.877-1.103.584-1.967 1.39-2.592 2.421-.625 1.03-.937 2.195-.937 3.493 0 1.314.32 2.49.961 3.529.641 1.039 1.546 1.85 2.714 2.434 1.168.584 2.523.876 4.065.876Zm-2.252-9.735c-.478.405-.783.957-.912 1.655h5.403c-.13-.698-.434-1.25-.913-1.655-.479-.406-1.075-.609-1.789-.609s-1.31.203-1.789.609Zm15.589 9.516v-6.06c0-1.104.28-1.923.84-2.459.56-.535 1.335-.803 2.324-.803.276 0 .625.025 1.047.073v-4.162c-.974 0-1.838.15-2.592.45-.755.3-1.367.751-1.838 1.351V18.09h-4.405v13.192h4.624Zm10.782-6.547v6.547h-4.624V18.09h4.405v1.388a4.641 4.641 0 0 1 1.74-1.205 5.912 5.912 0 0 1 2.203-.402c.925 0 1.753.17 2.483.512.73.34 1.322.86 1.776 1.557a5.123 5.123 0 0 1 1.972-1.533 6.285 6.285 0 0 1 2.604-.536c1.623 0 2.917.487 3.882 1.46.966.974 1.448 2.443 1.448 4.406v7.545h-4.624v-6.79c0-.925-.175-1.607-.523-2.045-.349-.438-.84-.657-1.473-.657-.698 0-1.257.243-1.679.73-.422.487-.633 1.225-.633 2.215v6.547h-4.624v-6.79c0-1.802-.666-2.702-1.996-2.702-.714 0-1.282.243-1.704.73-.422.487-.633 1.225-.633 2.215Z" fill="#fff"/><path fill-rule="evenodd" clip-rule="evenodd" d="m12.427 26.64-.83.924v2.957l.83-.915V26.64Z" fill="#D06868"/><path fill-rule="evenodd" clip-rule="evenodd" d="m12.427 26.65-3.104.003-1.106.914 3.38-.003.83-.915Z" fill="url(#a)"/><path fill-rule="evenodd" clip-rule="evenodd" d="m12.427 26.65-3.104.003-1.106.914 3.38-.003.83-.915Z" fill="url(#b)"/><path fill-rule="evenodd" clip-rule="evenodd" d="m11.597 27.555-3.38.003v2.966l3.38-.004v-2.965Z" fill="#A5597E"/><path fill-rule="evenodd" clip-rule="evenodd" d="M12.732 15.742c0-.159-.126-.826.534-.843.527-.014 1.627.171 2.57-.07 1.002-.257 2.031-1.212 2.155-1.101.124.11-1.081 1.58-2.607 1.992-.893.24-2.088.143-2.652.022-.22-.047.11.142-.688.001Z" fill="#C1BBA7"/><path fill-rule="evenodd" clip-rule="evenodd" d="M4.767 29.646s.614.091 1.075.09c.461 0 .8-.152.922-.213.123-.061.184-.488-.123-.701-.202-.14-.057-1.458-.37-1.95-.37-.58.275-2.317.275-2.317l-2.12 1.22s.463 2.408.494 2.621c.03.214-.276 1.159-.153 1.25Z" fill="#4B2357"/><path fill-rule="evenodd" clip-rule="evenodd" d="M10.02 21.642s-.19.88.193 1.86c.382.979 1.25 1.294 1.274 1.754.01.205-.1.426-.165.77-.082.43.206.848.022 1.2-.16.31-2.271.218-2.015-.281.257-.5.329-1.194.339-1.316.01-.121-1.297-1.48-1.196-2.329.1-.848-.466-1.08-.466-1.08l2.015-.578Z" fill="#4B2A5C"/><path fill-rule="evenodd" clip-rule="evenodd" d="M13.019 8.487c-1.14-.628-.804-2.316-.804-2.316s.061-.427-.246-.488c-.308-.06-.4-.152-.369.397.031.548-.302 2.073.62 2.865.674.578 1.63.456 2.306 1.37.674.91-.258 2.19-.463 2.286-.645.305-.615.427-1.137.489-.522.06-1.902-.09-2.67.184-.768.275-.556.55-1.293 1.007-.737.458-1.966 1.068-2.488 1.647-.204.227-.342.49-.422.747-.495.148-1.595.295-2.462.78-.508.283-1.846 1.196-2.457 2.074-.552.792-.828 1.738-.982 2.56C.058 22.6 0 23.584 0 24.194c0 .6.088 1.079.194 1.668.048.263.092.719.092 1.012 0 .294-.092.365-.092.57 0 .204.064.267.114.317.049.05 0-.154 0-.208 0-.054.073-.197.095-.151.022.046-.003.004-.023.237-.02.233.175.674.175.474 0-.2 0-.474.046-.593.046-.12.049-.028.049 0s-.012.094.018.08c.03-.013.083-.068.03-.34-.053-.27-.085-.27-.104-.386-.064-.39-.063-.587-.101-.852C.431 25.596.4 24.255.43 23.796c.047-.7.227-.78.307-.914.126-.214.251 1.29.8 2.62.466 1.128 1.107 1.128 1.353 1.371.246.244-.214 1.311-.029 2.073.166.684-.06 1.128 0 1.31.062.184.8.397 1.353.396.553 0 1.23-.153 1.229-.397 0-.64-.246-.518-.308-.914s.575-.977.644-1.463c.123-.854 0-1.037-.185-1.677-.012-.04-.093-.792-.093-.792s1.015.152 1.69-.306c1.118-.757 1.535-2.013 1.535-2.013s.46.506.738.731c.4.324.584.355.8.426.276.092 1.01.274 1.01.274s-.365.427-.58.58c-.152.108-.587.457-.495.64.093.183.395.678.708.884.557.365 1.018.487 1.171.456.154-.03.334-1.037.549-1.22.215-.183.618-.793.587-1.097-.03-.299-.093-1.463-.862-1.89-.417-.231-.937-.362-1.138-1.157-.184-.732-1.352-1.218-1.352-1.218.37-.526.99-1.209 1.155-1.389.18.089.346.146.53.138.335-.016.233-.382.04-.884l.056.091s.595-.36.798-.762c.215-.427.767-1.403 1.228-1.556.532-.176 1.475-.671 1.383-.854-.13-.257-.953-.274-.953-.274s1.052-.392 1.106-.488c.428-.765 1.031-2.192.673-3.81-.431-1.951-2.306-1.92-2.859-2.224Z" fill="url(#c)"/><mask id="d" style="mask-type:alpha" maskUnits="userSpaceOnUse" x="0" y="5" width="16" height="26"><path fill-rule="evenodd" clip-rule="evenodd" d="M13.019 8.487c-1.14-.628-.804-2.316-.804-2.316s.061-.427-.246-.488c-.308-.06-.4-.152-.369.397.031.548-.302 2.073.62 2.865.674.578 1.63.456 2.306 1.37.674.91-.258 2.19-.463 2.286-.645.305-.615.427-1.137.489-.522.06-1.902-.09-2.67.184-.768.275-.556.55-1.293 1.007-.737.458-1.966 1.068-2.488 1.647-.204.227-.342.49-.422.747-.495.148-1.595.295-2.462.78-.508.283-1.846 1.196-2.457 2.074-.552.792-.828 1.738-.982 2.56C.058 22.6 0 23.584 0 24.194c0 .6.088 1.079.194 1.668.048.263.092.719.092 1.012 0 .294-.092.365-.092.57 0 .204.064.267.114.317.049.05 0-.154 0-.208 0-.054.073-.197.095-.151.022.046-.003.004-.023.237-.02.233.175.674.175.474 0-.2 0-.474.046-.593.046-.12.049-.028.049 0s-.012.094.018.08c.03-.013.083-.068.03-.34-.053-.27-.085-.27-.104-.386-.064-.39-.063-.587-.101-.852C.431 25.596.4 24.255.43 23.796c.047-.7.227-.78.307-.914.126-.214.251 1.29.8 2.62.466 1.128 1.107 1.128 1.353 1.371.246.244-.214 1.311-.029 2.073.166.684-.06 1.128 0 1.31.062.184.8.397 1.353.396.553 0 1.23-.153 1.229-.397 0-.64-.246-.518-.308-.914s.575-.977.644-1.463c.123-.854 0-1.037-.185-1.677-.012-.04-.093-.792-.093-.792s1.015.152 1.69-.306c1.118-.757 1.535-2.013 1.535-2.013s.46.506.738.731c.4.324.584.355.8.426.276.092 1.01.274 1.01.274s-.365.427-.58.58c-.152.108-.587.457-.495.64.093.183.395.678.708.884.557.365 1.018.487 1.171.456.154-.03.334-1.037.549-1.22.215-.183.618-.793.587-1.097-.03-.299-.093-1.463-.862-1.89-.417-.231-.937-.362-1.138-1.157-.184-.732-1.352-1.218-1.352-1.218.37-.526.99-1.209 1.155-1.389.18.089.346.146.53.138.335-.016.233-.382.04-.884l.056.091s.595-.36.798-.762c.215-.427.767-1.403 1.228-1.556.532-.176 1.475-.671 1.383-.854-.13-.257-.953-.274-.953-.274s1.052-.392 1.106-.488c.428-.765 1.031-2.192.673-3.81-.431-1.951-2.306-1.92-2.859-2.224Z" fill="#fff"/></mask>
    <g mask="url(#d)">
        <mask id="e" style="mask-type:alpha" maskUnits="userSpaceOnUse" x="0" y="16" width="14" height="15"><path fill-rule="evenodd" clip-rule="evenodd" d="M1.134 19.529c-.553.793-.829 1.738-.982 2.56C.058 22.6 0 23.584 0 24.194c0 .6.08 1.27.186 1.86.154.853.339 1.828.462 1.797.06-.015-.025-.928-.155-1.828C.43 25.595.4 24.254.43 23.797c.047-.7.227-.781.307-.915.126-.214.251 1.29.8 2.62.466 1.128 1.107 1.128 1.353 1.372.246.243-.214 1.31-.03 2.072.167.684-.06 1.128.002 1.31.061.184.799.397 1.352.396.553 0 1.23-.153 1.229-.397 0-.64-.246-.518-.308-.914s.575-.977.644-1.463c.123-.854 0-1.037-.185-1.677-.012-.04-.093-.792-.093-.792s1.014.152 1.69-.306c1.118-.757 1.535-2.013 1.535-2.013s.46.506.738.731c.4.324.584.355.8.426.276.092 1.01.274 1.01.274s-.365.427-.58.58c-.152.108-.587.457-.495.64.093.183.395.678.708.884.557.365 1.018.487 1.171.456.154-.03.334-1.037.549-1.22.215-.183.618-.792.587-1.097-.03-.299-.093-1.463-.862-1.89-.417-.23-.937-.362-1.138-1.157-.184-.732-1.352-1.218-1.352-1.218.43-.61 1.197-1.434 1.197-1.434l-4.841-2.45c-.36.174-1.644.29-2.627.84-.508.283-1.846 1.197-2.457 2.074Z" fill="#fff"/></mask>
        <g mask="url(#e)" fill-rule="evenodd" clip-rule="evenodd"><path d="M.194 23.44s.277-2.895 1.66-3.078c1.381-.182 1.602-.173 2.202.348.738.64.458.932.62.932.163 0 .992-.53.836-1.505-.151-.944.878-1.934 3.065-1.845 2.188.089-2.513-.643-2.513-.643l-4.518 1.768s-1.26 1.646-1.29 2.896l-.062 1.128Z" fill="#4F6486"/><path d="M7.758 25.636s-2.225-.014-2.21-.3c.014-.288.118-.696.029-1.089-.018-.079 1.01.154 1.612-.333 1.195-.968.089-1.844.089-1.844s1.367.729 1.464 1.087c.174.644-.984 2.48-.984 2.48Z" fill="#4C3D6A"/><path d="M.17 26.037s.044-1.662.06-2.469c.03-1.494.26-2.48.797-3.262.46-.67 2.248-.09 2.919-.977 1.381-1.83 3.533-1.16 3.533-1.16l3.933.85s-.951 1.718-1.446 1.496a34.752 34.752 0 0 1-1.106-.55s.195.396.617.58c.984.426 1.322.791 1.538 1.4.09.255.447.725.697.83.247.104.453.235.62.378.036.03-.093.181-.061.212.028.027.275-.112.3-.084.029.03-.157.256-.132.287.025.03.267-.111.289-.08.031.043-.24.199-.214.242.019.03.272-.03.287 0 .065.125.104.245.12.348.062.396.277.67-.306 1.799-.427.826 1.812-1.22 1.812-1.22L8.982 14.508l-9.8 4.853.742 6.706.246-.031Z" fill="#4F728F"/><path d="M12.09 21.122s-1.062-2.819-1.047-3.108c.015-.29-2.888.306-2.888.306l1.844.609c1.106.365-.46 1.372-.46 1.372l2.029.913.522-.092Z" fill="#4C416D"/><path d="M2.324 30.181S.584 24.01.599 23.721c.015-.29-.092-2.336.245-1.586.123.274.77 3.688 2.122 3.84.794.088.29 2.13.402 2.56C3.645 29.6 3 30.669 3 30.669l-.676-.488Z" fill="#4C3D6A"/><path d="M.194 21.642c.188-1.097 1.508-2.764 2.811-3.497 1.304-.734 1.872-1.059 3.472-1.059 1.6 0-1.218-.968-1.218-.968L.382 18.145s-.885.18-.916 1.429l.728 2.068Z" fill="#5191A6"/></g>
        <g filter="url(#f)">
            <mask id="g" style="mask-type:alpha" maskUnits="userSpaceOnUse" x="5" y="5" width="11" height="15"><path fill-rule="evenodd" clip-rule="evenodd" d="M12.22 8.945c.674.578 1.63.456 2.306 1.37.674.91-.258 2.19-.463 2.286-.645.305-.614.427-1.137.489-.174.02-.443.017-.752.014-.62-.007-1.405-.013-1.917.17-.768.275-.557.55-1.294 1.007-.737.458-1.966 1.068-2.488 1.647-.522.58-.614 1.403-.398 1.738.215.335.86.7 2.612.73 1.752.03 2.182.883 2.858.852.335-.016.233-.381.04-.884l.056.091s.596-.36.798-.762c.215-.427.768-1.403 1.228-1.556.532-.176 1.475-.671 1.383-.854-.13-.257-.953-.274-.953-.274s1.052-.392 1.106-.488c.428-.765 1.031-2.192.673-3.81-.431-1.951-2.306-1.92-2.859-2.224-1.14-.628-.804-2.316-.804-2.316s.061-.427-.246-.488c-.108-.021-.189-.046-.248-.046-.109 0-.14.086-.12.443.03.548-.303 2.073.62 2.865Z" fill="#fff"/></mask>
            <g mask="url(#g)" fill-rule="evenodd" clip-rule="evenodd"><path d="M12.22 8.945c.674.578 1.63.456 2.306 1.37.674.91-.258 2.19-.463 2.286-.645.305-.614.427-1.137.489-.174.02-.443.017-.752.014-.62-.007-1.405-.013-1.917.17-.768.275-.557.55-1.294 1.007-.737.458-1.966 1.068-2.488 1.647-.522.58-.614 1.403-.398 1.738.215.335.86.7 2.612.73 1.752.03 2.182.883 2.858.852.335-.016.233-.381.04-.884l.056.091s.596-.36.798-.762c.215-.427.768-1.403 1.228-1.556.532-.176 1.475-.671 1.383-.854-.13-.257-.953-.274-.953-.274s1.052-.392 1.106-.488c.428-.765 1.031-2.192.673-3.81-.431-1.951-2.306-1.92-2.859-2.224-1.14-.628-.804-2.316-.804-2.316s.061-.427-.246-.488c-.108-.021-.189-.046-.248-.046-.109 0-.14.086-.12.443.03.548-.303 2.073.62 2.865Z" fill="url(#h)"/><path d="M11.643 18.455s.595-.36.798-.762c.215-.427.768-1.403 1.228-1.556.532-.176 1.475-.671 1.383-.854-.13-.256-.953-.274-.953-.274s1.052-.392 1.106-.488c.428-.765 1.015-1.445.443-3.003-.37-1.005-2.367-2.284-2.92-2.589-1.141-.627-.893-2.407-.893-2.407s0-.518-.308-.58c-.307-.06-.184-.06-.153.489.03.548-.076 1.722.846 2.514.674.578 1.676.898 2.352 1.812.674.91 1.66 1.889.74 2.926-.473.532-2.181 1.495-2.734 1.708-.49.19-1.352.306-1.536.276-.806-.133-1.353-.914-1.783-.64-.731.468.953 1.128.431 1.707-.522.58-2.486.49-2.519.886-.03.366.093.579 1.844.608 1.752.03 1.856 1.05 2.532 1.02.676-.031-.43-1.493-.462-2.621-.032-1.128-1.353-1.31-1.353-1.31" fill="#4E567C"/><path d="M9.505 14.265c.49-.64.675-.701 1.167-.793.332-.062 1.28-.022 2.069-.096.05-.005.108.179.175.179.068 0-.009-.352.066-.365.074-.014.226.386.295.365.07-.021-.092-.383 0-.41.092-.027.277.336.33.308.053-.028-.104-.308-.052-.378.051-.07.096.105.105.1.852-.458 1.19-1.148 1.22-1.656.03-.518-.584-1.25-.584-1.25l-4.58-2.405s.105-1.783 1.934-2.043c.645-.092-.067 1.004.678 2.316.385.678 1.322.554 2.22 1.142.061.04.16-.069.2-.038.04.03-.1.134.056.26.157.126.225-.085.283-.028.059.057-.159.168 0 .303.16.134.242-.046.296.021.054.068-.11.149-.04.228.222.248.23.336.336.762.333 1.336.197 1.05.646 1.584.85 1.012-3.962 2.472-3.962 2.472l5.684-.888-.347-1.213-7.837-14.54-4.35 19.724s.828-1.738 1.903-2.44c1.299-.848 1.597-.58 2.089-1.22Z" fill="#5DA7B5"/><path d="m11.996 18.623-.443-.3s-.294-1.139-.45-1.498c-.184-.427-.197-.638-.737-.762-1.598-.364-.646-.822-.646-.822s1.045.273 1.291 1.005c.104.307.185 1.128.646 1.127.461 0 .614-.701 1.014-.945.4-.245.675-.55 1.044-.61.369-.062 1.352-.063 1.352-.063l-3.07 2.868Z" fill="#4C416D"/><path d="M11.471 14.539c.461-.245.553-.092.83-.275.276-.183-1.015-.487-1.445-.243-.246.14-.35 1.018-.091 1.158.676.365.326-.439.706-.64Z" fill="#4E567C"/></g>
        </g>
    </g><path fill-rule="evenodd" clip-rule="evenodd" d="M5.596 25.252c.204-.88.276-1.003-.28-1.652-.555-.65-.616-.967-.616-.967s-.024.435.536 1.061c.56.626.038 1.72.283 2.443.246.724.304 1.063.304 1.063s-.074-.643-.178-1.105c-.034-.152-.132-.488-.05-.843Z" fill="#4F6486"/><path fill-rule="evenodd" clip-rule="evenodd" d="M12.916 15.574s.824-.024 1.075-.092c.338-.092.83-.123.83-.336l-.53-.155-.836.29-.03.08-.509.213Z" fill="#4B2A5C"/><path fill-rule="evenodd" clip-rule="evenodd" d="M15.876 13.24c-.75.603-1.807.946-2.273 1.19-.584.306-.215.763-.153.884.552-.156 1.659-.61 2.365-1.19 1.208-.99 1.72-2.653 1.566-2.683a.04.04 0 0 0-.006 0c-.162 0-.71 1.167-1.499 1.8Z" fill="url(#i)"/><path fill-rule="evenodd" clip-rule="evenodd" d="M13.45 15.314c-.227-.35-.166-.502-.166-.502s.246.213.676.06a6.124 6.124 0 0 0 1.905-1.037c.798-.641 1.35-1.708 1.35-1.708s-.192 1.006-1.4 1.997c-.706.58-1.813 1.034-2.365 1.19Z" fill="#D3CBAF"/><path fill-rule="evenodd" clip-rule="evenodd" d="M11.163 14.27c0-.112.092-.204.206-.204.114 0 .206.091.206.204a.205.205 0 0 1-.206.205.205.205 0 0 1-.206-.205Z" fill="#020408"/><path fill-rule="evenodd" clip-rule="evenodd" d="M11.47 14.172a.06.06 0 0 1-.06.06.06.06 0 0 1-.062-.06.06.06 0 0 1 .061-.06.06.06 0 0 1 .061.06Z" fill="#D5B8D8"/><path fill-rule="evenodd" clip-rule="evenodd" d="M11.966.006 14.123 2l-.114 1.144-2.287-2.112.242-1.026Z" fill="#FE9B7C"/><path fill-rule="evenodd" clip-rule="evenodd" d="m11.971 0-.248 1.032-2.031 2.163.242-1.025L11.971 0Z" fill="#D06868"/><path fill-rule="evenodd" clip-rule="evenodd" d="m11.729 1.026 2.287 2.112-2.037 2.17-2.287-2.113 2.037-2.17Z" fill="#A5597E"/><defs>
        <linearGradient id="a" x1="8.24" y1="26.234" x2="8.015" y2="28.278" gradientUnits="userSpaceOnUse"><stop stop-color="#FE9B7C"/><stop offset="1" stop-color="#D06868"/></linearGradient>
        <linearGradient id="c" x1="9.557" y1="40.069" x2="27.462" y2="26.257" gradientUnits="userSpaceOnUse"><stop stop-color="#4C416C"/><stop offset="1" stop-color="#4F7995"/></linearGradient>
        <linearGradient id="h" x1="7.805" y1="1.915" x2="-.092" y2="13.688" gradientUnits="userSpaceOnUse"><stop stop-color="#5190A5"/><stop offset="1" stop-color="#4E6586"/></linearGradient>
        <linearGradient id="i" x1="15.212" y1="11.396" x2="12.276" y2="14.043" gradientUnits="userSpaceOnUse"><stop stop-color="#EFE8CD"/><stop offset="1" stop-color="#D3CAAF"/></linearGradient>
        <radialGradient id="b" cx="0" cy="0" r="1" gradientUnits="userSpaceOnUse" gradientTransform="matrix(0 .55116 -7.76472 0 9.945 26.904)"><stop stop-opacity=".5"/><stop offset="1" stop-opacity=".01"/></radialGradient>
        <filter id="f" x="3.967" y="3.635" width="14.022" height="17.615" filterUnits="userSpaceOnUse" color-interpolation-filters="sRGB"><feFlood flood-opacity="0" result="BackgroundImageFix"/><feColorMatrix in="SourceAlpha" values="0 0 0 0 0 0 0 0 0 0 0 0 0 0 0 0 0 0 127 0" result="hardAlpha"/><feOffset/><feGaussianBlur stdDeviation="1.001"/><feColorMatrix values="0 0 0 0 0 0 0 0 0 0 0 0 0 0 0 0 0 0 0.5 0"/><feBlend in2="BackgroundImageFix" result="effect1_dropShadow_2:1877"/><feBlend in="SourceGraphic" in2="effect1_dropShadow_2:1877" result="shape"/></filter>
    </defs>
</svg>