<svg width="18" height="31" xmlns="http://www.w3.org/2000/svg" xmlns:xlink="http://www.w3.org/1999/xlink"><defs><linearGradient x1=".546%" y1="45.069%" x2="-4.798%" y2="56.601%" id="linearGradient-1"><stop stop-color="#FE9B7C" offset="0%"/><stop stop-color="#D06868" offset="100%"/></linearGradient><linearGradient x1="53.995%" y1="137.646%" x2="99.739%" y2="82.43%" id="linearGradient-3"><stop stop-color="#4C416C" offset="0%"/><stop stop-color="#4F7995" offset="100%"/></linearGradient><linearGradient x1="32.845%" y1="-27.344%" x2="-9.857%" y2="59.147%" id="linearGradient-10"><stop stop-color="#5190A5" offset="0%"/><stop stop-color="#4E6586" offset="100%"/></linearGradient><linearGradient x1="46.831%" y1="4.998%" x2="-24.266%" y2="65.116%" id="linearGradient-11"><stop stop-color="#EFE8CD" offset="0%"/><stop stop-color="#D3CAAF" offset="100%"/></linearGradient><path d="M13.019 2.85c-1.14-.628-.804-2.316-.804-2.316s.061-.427-.246-.488c-.308-.06-.4-.152-.369.397.031.548-.302 2.073.62 2.865.674.578 1.63.456 2.306 1.37.674.91-.258 2.19-.463 2.286-.645.305-.615.427-1.137.489-.522.06-1.902-.09-2.67.184-.768.275-.556.55-1.293 1.007-.737.458-1.966 1.068-2.488 1.647a2.02 2.02 0 0 0-.422.747c-.495.148-1.595.295-2.462.78-.508.283-1.846 1.196-2.457 2.074-.552.792-.828 1.738-.982 2.56-.094.51-.152 1.495-.152 2.105 0 .6.088 1.079.194 1.668.048.263.092.719.092 1.012 0 .294-.092.365-.092.57 0 .204.064.267.114.317.049.05 0-.154 0-.208 0-.054.073-.197.095-.151.022.046-.003.004-.023.237-.02.233.175.674.175.474 0-.2 0-.474.046-.593.046-.12.049-.028.049 0s-.012.094.018.08c.03-.013.083-.068.03-.34-.053-.27-.085-.27-.104-.386-.064-.39-.063-.587-.101-.852C.431 19.959.4 18.618.43 18.159c.047-.7.227-.78.307-.914.126-.214.251 1.29.8 2.62.466 1.128 1.107 1.128 1.353 1.37.246.245-.214 1.312-.029 2.074.166.684-.06 1.128 0 1.31.062.184.8.397 1.353.396.553 0 1.23-.153 1.229-.397 0-.64-.246-.518-.308-.914s.575-.977.644-1.463c.123-.854 0-1.037-.185-1.677-.012-.04-.093-.792-.093-.792s1.015.152 1.69-.306c1.118-.757 1.535-2.013 1.535-2.013s.46.506.738.73c.4.325.584.356.8.427.276.092 1.01.274 1.01.274s-.365.427-.58.58c-.152.108-.587.457-.495.64.093.183.395.678.708.884.557.365 1.018.487 1.171.456.154-.03.334-1.037.549-1.22.215-.183.618-.793.587-1.097-.03-.3-.093-1.463-.862-1.89-.417-.231-.937-.362-1.138-1.157-.184-.732-1.352-1.218-1.352-1.218.37-.526.99-1.21 1.155-1.39.18.09.346.147.53.139.335-.016.233-.382.04-.884l.056.09s.595-.36.798-.761c.215-.427.767-1.403 1.228-1.556.532-.176 1.475-.671 1.383-.854-.13-.257-.953-.274-.953-.274s1.052-.392 1.106-.488c.428-.765 1.031-2.192.673-3.81-.431-1.951-2.306-1.92-2.859-2.224Z" id="path-4"/><path d="M1.134 2.914c-.553.793-.829 1.738-.982 2.56C.058 5.985 0 6.969 0 7.579c0 .6.08 1.27.186 1.86.154.853.339 1.828.462 1.797.06-.015-.025-.928-.155-1.828C.43 8.98.4 7.639.43 7.182c.047-.7.227-.781.307-.915.126-.214.251 1.29.8 2.62.466 1.128 1.107 1.128 1.353 1.372.246.243-.214 1.31-.03 2.072.167.684-.06 1.128.002 1.31.061.184.799.397 1.352.396.553 0 1.23-.153 1.229-.397 0-.64-.246-.518-.308-.914s.575-.977.644-1.463c.123-.854 0-1.037-.185-1.677-.012-.04-.093-.792-.093-.792s1.014.152 1.69-.306c1.118-.757 1.535-2.013 1.535-2.013s.46.506.738.731c.4.324.584.355.8.426.276.092 1.01.274 1.01.274s-.365.427-.58.58c-.152.108-.587.457-.495.64.093.183.395.678.708.884.557.365 1.018.487 1.171.456.154-.03.334-1.037.549-1.22.215-.183.618-.792.587-1.097-.03-.299-.093-1.463-.862-1.89-.417-.23-.937-.362-1.138-1.157-.184-.732-1.352-1.218-1.352-1.218.43-.61 1.197-1.434 1.197-1.434L6.218 0c-.36.174-1.644.29-2.627.84-.508.283-1.846 1.197-2.457 2.074Z" id="path-6"/><path d="M6.252 3.308c.674.578 1.63.456 2.306 1.37.674.91-.258 2.19-.463 2.286-.645.305-.614.427-1.137.489-.174.02-.443.017-.752.014-.62-.007-1.405-.013-1.917.17-.768.275-.557.55-1.294 1.007-.737.458-1.966 1.068-2.488 1.647-.522.58-.614 1.403-.398 1.738.215.335.86.7 2.612.73 1.752.03 2.182.883 2.858.852.335-.016.233-.381.04-.884l.056.091s.596-.36.798-.762c.215-.427.768-1.403 1.228-1.556.532-.176 1.475-.671 1.383-.854-.13-.257-.953-.274-.953-.274s1.052-.392 1.106-.488c.428-.765 1.03-2.192.673-3.81-.431-1.951-2.306-1.92-2.86-2.224C5.91 2.222 6.248.534 6.248.534S6.307.107 6 .046C5.893.025 5.81 0 5.753 0c-.11 0-.14.086-.12.443.03.548-.303 2.073.62 2.865h-.001Z" id="path-8"/><radialGradient cx="41.045%" cy="29.6%" fx="41.045%" fy="29.6%" r="55.116%" gradientTransform="matrix(0 1 -.23753 0 .48 -.114)" id="radialGradient-2"><stop stop-opacity=".5" offset="0%"/><stop stop-opacity=".01" offset="100%"/></radialGradient></defs><g id="export-page" stroke="none" stroke-width="1" fill="none" fill-rule="evenodd"><g id="Artboard" transform="translate(-224 -459)"><g id="pachyderm-symbol" transform="translate(224 459)"><g id="cube" transform="translate(8.217 26.608)"><path id="Path-Copy" fill="#D06868" d="m4.21.032-.83.924v2.957l.83-.915z"/><path id="Path-Copy-2" fill="url('#linearGradient-1')" d="M4.21.042 1.106.045 0 .959 3.38.956l.83-.915z"/><path id="Path-Copy-3" fill="url('#radialGradient-2')" d="M4.21.042 1.106.045 0 .959 3.38.956l.83-.915z"/><path id="Path-Copy-4" fill="#A5597E" d="M3.38.947 0 .95v2.966l3.38-.004V.947z"/></g><path d="M12.732 15.742c0-.159-.126-.826.534-.843.527-.014 1.627.171 2.57-.07 1.002-.257 2.031-1.212 2.155-1.101.124.11-1.081 1.58-2.607 1.992-.893.24-2.088.143-2.652.022-.22-.047.11.142-.688.001l.688-.001Z" id="Path-Copy-5" fill="#C1BBA7"/><path d="M4.767 29.646s.614.091 1.075.09c.461 0 .8-.152.922-.213.123-.061.184-.488-.123-.701-.202-.14-.057-1.458-.37-1.95-.37-.58.275-2.317.275-2.317l-2.12 1.22s.463 2.408.494 2.621c.03.214-.276 1.159-.153 1.25Z" id="Path-Copy-6" fill="#4B2357"/><path d="M10.02 21.642s-.19.88.193 1.86c.382.979 1.25 1.294 1.274 1.754.01.205-.1.426-.165.77-.082.43.206.848.022 1.2-.16.31-2.271.218-2.015-.281.257-.5.329-1.194.339-1.316.01-.121-1.297-1.48-1.196-2.329.1-.848-.466-1.08-.466-1.08l2.015-.578h-.001Z" id="Path-Copy-7" fill="#4B2A5C"/><path d="M13.019 8.487c-1.14-.628-.804-2.316-.804-2.316s.061-.427-.246-.488c-.308-.06-.4-.152-.369.397.031.548-.302 2.073.62 2.865.674.578 1.63.456 2.306 1.37.674.91-.258 2.19-.463 2.286-.645.305-.615.427-1.137.489-.522.06-1.902-.09-2.67.184-.768.275-.556.55-1.293 1.007-.737.458-1.966 1.068-2.488 1.647a2.02 2.02 0 0 0-.422.747c-.495.148-1.595.295-2.462.78-.508.283-1.846 1.196-2.457 2.074-.552.792-.828 1.738-.982 2.56C.058 22.6 0 23.584 0 24.194c0 .6.088 1.079.194 1.668.048.263.092.719.092 1.012 0 .294-.092.365-.092.57 0 .204.064.267.114.317.049.05 0-.154 0-.208 0-.054.073-.197.095-.151.022.046-.003.004-.023.237-.02.233.175.674.175.474 0-.2 0-.474.046-.593.046-.12.049-.028.049 0s-.012.094.018.08c.03-.013.083-.068.03-.34-.053-.27-.085-.27-.104-.386-.064-.39-.063-.587-.101-.852C.431 25.596.4 24.255.43 23.796c.047-.7.227-.78.307-.914.126-.214.251 1.29.8 2.62.466 1.128 1.107 1.128 1.353 1.371.246.244-.214 1.311-.029 2.073.166.684-.06 1.128 0 1.31.062.184.8.397 1.353.396.553 0 1.23-.153 1.229-.397 0-.64-.246-.518-.308-.914s.575-.977.644-1.463c.123-.854 0-1.037-.185-1.677-.012-.04-.093-.792-.093-.792s1.015.152 1.69-.306c1.118-.757 1.535-2.013 1.535-2.013s.46.506.738.731c.4.324.584.355.8.426.276.092 1.01.274 1.01.274s-.365.427-.58.58c-.152.108-.587.457-.495.64.093.183.395.678.708.884.557.365 1.018.487 1.171.456.154-.03.334-1.037.549-1.22.215-.183.618-.793.587-1.097-.03-.299-.093-1.463-.862-1.89-.417-.231-.937-.362-1.138-1.157-.184-.732-1.352-1.218-1.352-1.218.37-.526.99-1.209 1.155-1.389.18.089.346.146.53.138.335-.016.233-.382.04-.884l.056.091s.595-.36.798-.762c.215-.427.767-1.403 1.228-1.556.532-.176 1.475-.671 1.383-.854-.13-.257-.953-.274-.953-.274s1.052-.392 1.106-.488c.428-.765 1.031-2.192.673-3.81-.431-1.951-2.306-1.92-2.859-2.224Z" id="Path-Copy-8" fill="url('#linearGradient-3')"/><g id="Clipped-Copy" transform="translate(0 5.637)"><mask id="mask-5" fill="#fff"><use xlink:href="#path-4"/></mask><g id="Group" mask="url('#mask-5')"><g id="Clipped"><g transform="translate(0 10.978)"><mask id="mask-7" fill="#fff"><use xlink:href="#path-6"/></mask><g id="Group" mask="url('#mask-7')" fill-rule="nonzero"><g id="Path"><path d="M1.012 8.932s.277-2.895 1.66-3.078c1.381-.182 1.602-.173 2.202.348.738.64.458.932.62.932.163 0 .992-.53.836-1.505-.151-.944.878-1.934 3.065-1.845 2.188.089-2.513-.643-2.513-.643L2.364 4.909s-1.26 1.646-1.29 2.896l-.062 1.128v-.001Z" fill="#4F6486" transform="translate(-.818 -2.107)"/><path d="M8.576 11.128s-2.225-.014-2.21-.3c.014-.288.118-.696.029-1.089-.018-.079 1.01.154 1.612-.333 1.195-.968.089-1.844.089-1.844s1.367.729 1.464 1.087c.174.644-.984 2.48-.984 2.48v-.001Z" fill="#4C3D6A" transform="translate(-.818 -2.107)"/><path d="M.988 11.529s.044-1.662.06-2.469c.03-1.494.26-2.48.797-3.262.46-.67 2.248-.09 2.919-.977 1.381-1.83 3.533-1.16 3.533-1.16l3.933.85s-.951 1.718-1.446 1.496c-.372-.177-.74-.36-1.106-.55 0 0 .195.396.617.58.984.426 1.322.791 1.538 1.4.09.255.447.725.697.83.247.104.453.235.62.378.036.03-.093.181-.061.212.028.027.275-.112.3-.084.029.03-.157.256-.132.287.025.03.267-.111.289-.08.031.043-.24.199-.214.242.019.03.272-.03.287 0 .065.125.104.245.12.348.062.396.277.67-.306 1.799-.427.826 1.812-1.22 1.812-1.22L9.8 0 0 4.853l.742 6.706.246-.031v.001Z" fill="#4F728F" transform="translate(-.818 -2.107)"/><path d="M12.908 6.614s-1.062-2.819-1.047-3.108c.015-.29-2.888.306-2.888.306l1.844.609c1.106.365-.46 1.372-.46 1.372l2.029.913.522-.092Z" fill="#4C416D" transform="translate(-.818 -2.107)"/><path d="M3.142 15.673s-1.74-6.171-1.725-6.46c.015-.29-.092-2.336.245-1.586.123.274.77 3.688 2.122 3.84.794.088.29 2.13.402 2.56.277 1.065-.368 2.134-.368 2.134l-.676-.488Z" fill="#4C3D6A" transform="translate(-.818 -2.107)"/><path d="M1.012 7.134C1.2 6.037 2.52 4.37 3.823 3.637c1.304-.734 1.872-1.059 3.472-1.059 1.6 0-1.218-.968-1.218-.968L1.2 3.637s-.885.18-.916 1.429l.728 2.068Z" fill="#5191A6" transform="translate(-.818 -2.107)"/></g></g></g><g transform="translate(5.968)"><mask id="mask-9" fill="#fff"><use xlink:href="#path-8"/></mask><g id="Group" mask="url('#mask-9')" fill-rule="nonzero"><g id="Path"><path d="M6.707 10.743c.674.578 1.63.456 2.306 1.37.674.91-.258 2.19-.463 2.286-.645.305-.614.427-1.137.489-.174.02-.443.017-.752.014-.62-.007-1.405-.013-1.917.17-.768.275-.557.55-1.294 1.007-.737.458-1.966 1.068-2.488 1.647-.522.58-.614 1.403-.398 1.738.215.335.86.7 2.612.73 1.752.03 2.182.883 2.858.852.335-.016.233-.381.04-.884l.056.091s.596-.36.798-.762c.215-.427.768-1.403 1.228-1.556.532-.176 1.475-.671 1.383-.854-.13-.257-.953-.274-.953-.274s1.052-.392 1.106-.488c.428-.765 1.031-2.192.673-3.81-.431-1.951-2.306-1.92-2.859-2.224-1.14-.628-.804-2.316-.804-2.316s.061-.427-.246-.488c-.108-.021-.189-.046-.248-.046-.109 0-.14.086-.12.443.03.548-.303 2.073.62 2.865h-.001Z" fill="url('#linearGradient-10')" transform="translate(-.455 -7.435)"/><path d="M6.13 20.253s.595-.36.798-.762c.215-.427.768-1.403 1.228-1.556.532-.176 1.475-.671 1.383-.854-.13-.256-.953-.274-.953-.274s1.052-.392 1.106-.488c.428-.765 1.015-1.445.443-3.003-.37-1.005-2.367-2.284-2.92-2.589-1.141-.627-.893-2.407-.893-2.407s0-.518-.308-.58c-.307-.06-.184-.06-.153.489.03.548-.076 1.722.846 2.514.674.578 1.676.898 2.352 1.812.674.91 1.66 1.889.74 2.926-.473.532-2.181 1.495-2.734 1.708-.49.19-1.352.306-1.536.276-.806-.133-1.353-.914-1.783-.64-.731.468.953 1.128.431 1.707-.522.58-2.486.49-2.519.886-.03.366.093.579 1.844.608 1.752.03 1.856 1.05 2.532 1.02.676-.031-.43-1.493-.462-2.621-.032-1.128-1.353-1.31-1.353-1.31" fill="#4E567C" transform="translate(-.455 -7.435)"/><path d="M3.992 16.063c.49-.64.675-.701 1.167-.793.332-.062 1.28-.022 2.069-.096.05-.005.108.179.175.179.068 0-.009-.352.066-.365.074-.014.226.386.295.365.07-.021-.092-.383 0-.41.092-.027.277.336.33.308.053-.028-.104-.308-.052-.378.051-.07.096.105.105.1.852-.458 1.19-1.148 1.22-1.656.03-.518-.584-1.25-.584-1.25l-4.58-2.405s.105-1.783 1.934-2.043c.645-.092-.067 1.004.678 2.316.385.678 1.322.554 2.22 1.142.061.04.16-.069.2-.038.04.03-.1.134.056.26.157.126.225-.085.283-.028.059.057-.159.168 0 .303.16.134.242-.046.296.021.054.068-.11.149-.04.228.222.248.23.336.336.762.333 1.336.197 1.05.646 1.584.85 1.012-3.962 2.472-3.962 2.472l5.684-.888-.347-1.213L4.35 0 0 19.724s.828-1.738 1.903-2.44c1.299-.848 1.597-.58 2.089-1.22v-.001Z" fill="#5DA7B5" transform="translate(-.455 -7.435)"/><path d="m6.483 20.421-.443-.3s-.294-1.139-.45-1.498c-.184-.427-.197-.638-.737-.762-1.598-.364-.646-.822-.646-.822s1.045.273 1.291 1.005c.104.307.185 1.128.646 1.127.461 0 .614-.701 1.014-.945.4-.245.675-.55 1.044-.61.369-.062 1.352-.063 1.352-.063l-3.07 2.868h-.001Z" fill="#4C416D" transform="translate(-.455 -7.435)"/><path d="M5.958 16.337c.461-.245.553-.092.83-.275.276-.183-1.015-.487-1.445-.243-.246.14-.35 1.018-.091 1.158.676.365.326-.439.706-.64Z" fill="#4E567C" transform="translate(-.455 -7.435)"/></g></g></g></g></g></g><path d="M5.596 25.252c.204-.88.276-1.003-.28-1.652-.555-.65-.616-.967-.616-.967s-.024.435.536 1.061c.56.626.038 1.72.283 2.443.246.724.304 1.063.304 1.063s-.074-.643-.178-1.105c-.034-.152-.132-.488-.05-.843h.001Z" id="Path-Copy-9" fill="#4F6486"/><path d="M12.916 15.574s.824-.024 1.075-.092c.338-.092.83-.123.83-.336l-.53-.155-.836.29-.03.08-.509.213Z" id="Path-Copy-10" fill="#4B2A5C"/><path d="M15.876 13.24c-.75.603-1.807.946-2.273 1.19-.584.306-.215.763-.153.884.552-.156 1.659-.61 2.365-1.19 1.208-.99 1.72-2.653 1.566-2.683h-.006c-.162 0-.71 1.167-1.499 1.8v-.001Z" id="Path-Copy-11" fill="url('#linearGradient-11')"/><path d="M13.45 15.314c-.227-.35-.166-.502-.166-.502s.246.213.676.06a6.124 6.124 0 0 0 1.905-1.037c.798-.641 1.35-1.708 1.35-1.708s-.192 1.006-1.4 1.997c-.706.58-1.813 1.034-2.365 1.19Z" id="Path-Copy-12" fill="#D3CBAF"/><path d="M11.163 14.27c0-.112.092-.204.206-.204a.205.205 0 1 1 0 .409.205.205 0 0 1-.206-.205Z" id="Path-Copy-13" fill="#020408"/><path d="M11.47 14.172a.06.06 0 0 1-.06.06.06.06 0 1 1-.001-.12.06.06 0 0 1 .061.06Z" id="Path-Copy-14" fill="#D5B8D8"/><g id="cube-(turned)" transform="translate(9.692)"><path id="Path-Copy-15" fill="#FE9B7C" d="M2.274.006 4.431 2l-.114 1.144L2.03 1.032 2.272.006z"/><path id="Path-Copy-16" fill="#D06868" d="m2.279 0-.248 1.032L0 3.195.242 2.17z"/><path id="Path-Copy-17" fill="#A5597E" d="m2.037 1.026 2.287 2.112-2.037 2.17L0 3.195l2.037-2.17z"/></g></g></g></g></svg>