<svg width="48" height="48" viewBox="0 0 48 48" fill="none" xmlns="http://www.w3.org/2000/svg">
<path d="M38.5388 22.6151C40.4504 22.6151 42 21.0655 42 19.1539C42 17.2423 40.4502 15.6926 38.5386 15.6926C36.6269 15.6926 35.077 17.2424 35.077 19.1542V22.6151H38.5388ZM28.8462 22.6151C30.7579 22.6151 32.3077 21.0653 32.3077 19.1536V9.46186C32.3077 7.5501 30.7579 6.00032 28.8462 6.00032C26.9344 6.00032 25.3846 7.5501 25.3846 9.46186V19.1536C25.3846 21.0653 26.9344 22.6151 28.8462 22.6151Z" fill="#2EB67D"/>
<path d="M9.46121 25.385C7.54962 25.385 5.99997 26.9346 5.99997 28.8462C5.99997 30.7578 7.54977 32.3074 9.46136 32.3074C11.3731 32.3074 12.923 30.7577 12.923 28.8459V25.385H9.46121ZM19.1538 25.385C17.2421 25.385 15.6923 26.9347 15.6923 28.8465V38.5382C15.6923 40.45 17.2421 41.9998 19.1538 41.9998C21.0656 41.9998 22.6154 40.45 22.6154 38.5382V28.8465C22.6154 26.9347 21.0656 25.385 19.1538 25.385Z" fill="#E01E5A"/>
<path d="M25.3849 38.5388C25.3849 40.4504 26.9346 42 28.8461 42C30.7577 42 32.3074 40.4502 32.3074 38.5386C32.3074 36.6269 30.7576 35.077 28.8458 35.077L25.3849 35.077L25.3849 38.5388ZM25.3849 28.8462C25.3849 30.7579 26.9347 32.3077 28.8464 32.3077L38.5382 32.3077C40.4499 32.3077 41.9997 30.7579 41.9997 28.8462C41.9997 26.9344 40.4499 25.3846 38.5382 25.3846L28.8464 25.3846C26.9347 25.3846 25.3849 26.9344 25.3849 28.8462Z" fill="#ECB22E"/>
<path d="M22.615 9.46127C22.615 7.54968 21.0654 6.00003 19.1538 6.00003C17.2422 6.00003 15.6926 7.54983 15.6926 9.46142C15.6926 11.3732 17.2423 12.9231 19.1541 12.9231L22.615 12.9231L22.615 9.46127ZM22.615 19.1539C22.615 17.2421 21.0653 15.6923 19.1535 15.6923L9.46178 15.6923C7.55003 15.6923 6.00024 17.2421 6.00024 19.1539C6.00024 21.0656 7.55003 22.6154 9.46178 22.6154L19.1535 22.6154C21.0653 22.6154 22.615 21.0656 22.615 19.1539Z" fill="#36C5F0"/>
</svg>
